<svg version="1.1" id="Layer_1" xmlns="http://www.w3.org/2000/svg" 
	 width="200"  height="200" viewBox="0 0 200 200" enable-background="new 0 0 200 200">
<path fill="#161616" opacity="1.000000" stroke="none" 
	d="
M96.000000,201.000000 
	C64.000000,201.000000 32.500004,201.000000 1.000004,201.000000 
	C1.000003,134.333344 1.000003,67.666679 1.000001,1.000013 
	C67.666656,1.000009 134.333313,1.000009 200.999969,1.000004 
	C200.999985,67.666649 200.999985,134.333298 201.000000,200.999969 
	C166.166672,201.000000 131.333328,201.000000 96.000000,201.000000 
M110.214485,65.670364 
	C109.728188,65.139153 109.250015,64.154655 108.754356,64.145775 
	C102.797707,64.039009 96.838455,64.076721 90.347374,64.076721 
	C90.347374,66.077248 90.347572,67.697495 90.347343,69.317741 
	C90.345718,80.977341 90.408401,92.637550 90.299576,104.296150 
	C90.270302,107.432266 90.143852,110.680305 89.320442,113.672920 
	C87.555084,120.088905 82.324013,122.902313 74.835739,122.000313 
	C69.252380,121.327774 66.082649,117.921188 65.844254,111.323616 
	C65.519684,102.340820 65.642532,93.341331 65.604828,84.348869 
	C65.577042,77.722992 65.599365,71.096916 65.599365,64.350937 
	C58.722801,64.350937 52.360737,64.350937 45.967484,64.350937 
	C45.967484,82.304787 45.624561,99.952339 46.097523,117.578003 
	C46.376289,127.966606 53.537571,134.970551 63.721367,137.012955 
	C75.869545,139.449295 85.891678,136.164917 93.689262,126.018211 
	C98.210823,135.028198 105.914703,137.540924 114.670708,137.700241 
	C123.632828,137.863297 130.825317,133.858887 137.248383,125.996338 
	C137.248383,130.052277 137.248383,132.763443 137.248383,135.592651 
	C143.672562,135.592651 149.599838,135.592651 155.757965,135.592651 
	C155.757965,120.001503 155.757965,104.635071 155.757965,89.340424 
	C149.074829,89.340424 142.688339,89.340424 135.987656,89.340424 
	C135.987656,96.171867 136.312714,102.671478 135.904572,109.124710 
	C135.405319,117.018570 129.742523,122.058807 122.168098,122.078934 
	C114.543350,122.099190 111.085670,118.864502 110.740227,109.595261 
	C110.207153,95.291443 110.365929,80.961838 110.214485,65.670364 
M156.083267,76.451096 
	C156.083267,72.378044 156.083267,68.304993 156.083267,64.304024 
	C149.002350,64.304024 142.747711,64.304024 136.334900,64.304024 
	C136.334900,70.975067 136.334900,77.354897 136.334900,83.753937 
	C143.040176,83.753937 149.414291,83.753937 156.083191,83.753937 
	C156.083191,81.390251 156.083191,79.410988 156.083267,76.451096 
z"/>
<path fill="#F6F1EE" opacity="1.000000" stroke="none" 
	d="
M110.222870,66.156769 
	C110.365929,80.961838 110.207153,95.291443 110.740227,109.595261 
	C111.085670,118.864502 114.543350,122.099190 122.168098,122.078934 
	C129.742523,122.058807 135.405319,117.018570 135.904572,109.124710 
	C136.312714,102.671478 135.987656,96.171867 135.987656,89.340424 
	C142.688339,89.340424 149.074829,89.340424 155.757965,89.340424 
	C155.757965,104.635071 155.757965,120.001503 155.757965,135.592651 
	C149.599838,135.592651 143.672562,135.592651 137.248383,135.592651 
	C137.248383,132.763443 137.248383,130.052277 137.248383,125.996338 
	C130.825317,133.858887 123.632828,137.863297 114.670708,137.700241 
	C105.914703,137.540924 98.210823,135.028198 93.689262,126.018211 
	C85.891678,136.164917 75.869545,139.449295 63.721367,137.012955 
	C53.537571,134.970551 46.376289,127.966606 46.097523,117.578003 
	C45.624561,99.952339 45.967484,82.304787 45.967484,64.350937 
	C52.360737,64.350937 58.722801,64.350937 65.599365,64.350937 
	C65.599365,71.096916 65.577042,77.722992 65.604828,84.348869 
	C65.642532,93.341331 65.519684,102.340820 65.844254,111.323616 
	C66.082649,117.921188 69.252380,121.327774 74.835739,122.000313 
	C82.324013,122.902313 87.555084,120.088905 89.320442,113.672920 
	C90.143852,110.680305 90.270302,107.432266 90.299576,104.296150 
	C90.408401,92.637550 90.345718,80.977341 90.347343,69.317741 
	C90.347572,67.697495 90.347374,66.077248 90.347374,64.076721 
	C96.838455,64.076721 102.797707,64.039009 108.754356,64.145775 
	C109.250015,64.154655 109.728188,65.139153 110.222870,66.156769 
z"/>
<path fill="#FF020D" opacity="1.000000" stroke="none" 
	d="
M156.083221,76.941414 
	C156.083191,79.410988 156.083191,81.390251 156.083191,83.753937 
	C149.414291,83.753937 143.040176,83.753937 136.334900,83.753937 
	C136.334900,77.354897 136.334900,70.975067 136.334900,64.304024 
	C142.747711,64.304024 149.002350,64.304024 156.083267,64.304024 
	C156.083267,68.304993 156.083267,72.378044 156.083221,76.941414 
z"/>
</svg>